<svg xmlns="http://www.w3.org/2000/svg" viewBox="0 0 128 128" role="img">
<defs><linearGradient id="b" x1="0" y1="0" x2="0" y2="1">
<stop offset="0" stop-color="#58402f"/><stop offset="1" stop-color="#39291e"/>
</linearGradient></defs>
<rect width="128" height="128" rx="16" fill="url(#b)"/>
<ellipse cx="64" cy="96" rx="34" ry="28" fill="#6b4a7c"/>
<circle cx="64" cy="50" r="26" fill="#82502f"/>
<path d="M46 38 Q48 24 64 24 Q80 24 82 38 Q64 32 46 38 Z" fill="#6b3a2a"/><path d="M60 24 Q64 12 70 20 Q66 18 60 24 Z" fill="#6b3a2a"/>
<rect x="50" y="44" width="8" height="3.4" rx="1.7" fill="#241812"/><rect x="70" y="44" width="8" height="3.4" rx="1.7" fill="#241812"/>
<ellipse cx="64" cy="60" rx="4.5" ry="3.2" fill="#3d211a"/>
<path d="M42 38 Q42 20 64 20 Q86 20 86 38 Z" fill="#c9a8e6"/><rect x="40" y="36" width="48" height="6" rx="3" fill="#c9a8e6" opacity="0.75"/>
</svg>
