<svg xmlns="http://www.w3.org/2000/svg" viewBox="0 0 128 128" role="img">
<defs>
  <radialGradient id="b7o" cx="0.5" cy="0.35" r="0.75">
    <stop offset="0" stop-color="#d4a86a"/>
    <stop offset="0.55" stop-color="#5c4b2d"/>
    <stop offset="1" stop-color="#2b2518"/>
  </radialGradient>
  <radialGradient id="f7o" cx="0.35" cy="0.25" r="0.85">
    <stop offset="0" stop-color="#d4a787" stop-opacity="0.45"/>
    <stop offset="1" stop-color="#d4a787" stop-opacity="0"/>
  </radialGradient>
  <linearGradient id="g7o" x1="0" y1="0" x2="0" y2="1">
    <stop offset="0" stop-color="#384565"/>
    <stop offset="1" stop-color="#232c42"/>
  </linearGradient>
  <clipPath id="c7o"><circle cx="64" cy="64" r="64"/></clipPath>
  <filter id="p7o" x="0%" y="0%" width="100%" height="100%">
    <feTurbulence type="fractalNoise" baseFrequency="0.9" numOctaves="2" seed="276"/>
    <feColorMatrix values="0 0 0 0 0  0 0 0 0 0  0 0 0 0 0  0 0 0 0.14 0"/>
    <feComposite in2="SourceGraphic" operator="in"/>
  </filter>
</defs>
<g clip-path="url(#c7o)">
<rect width="128" height="128" fill="url(#b7o)"/>
    <circle cx="47" cy="31" r="10" fill="#d8b179" opacity="0.18"/>
    <circle cx="110" cy="63" r="14" fill="#d8b179" opacity="0.12"/>
    <circle cx="30" cy="79" r="8" fill="#d8b179" opacity="0.1"/>
    <path d="M0 128 Q0 92 28 86 Q42 82 52 88 Q58 94 64 94 Q70 94 76 88 Q86 82 100 86 Q128 92 128 128 Z" fill="url(#g7o)"/>
    <path d="M24 90 Q40 86 50 92 Q58 98 64 98" stroke="#1e2538" stroke-width="0.8" fill="none" opacity="0.5"/>
    <path d="M104 90 Q88 86 78 92 Q70 98 64 98" stroke="#1e2538" stroke-width="0.8" fill="none" opacity="0.5"/><path d="M54 74 Q54 90 64 92 Q74 90 74 74 Z" fill="#c68a5f"/>
    <path d="M56 78 Q58 86 64 88 Q70 86 72 78" fill="#8f5c3c" opacity="0.35"/><ellipse cx="40" cy="53" rx="4" ry="6" fill="#c68a5f"/>
    <ellipse cx="88" cy="53" rx="4" ry="6" fill="#c68a5f"/>
    <ellipse cx="40" cy="54" rx="2" ry="3.5" fill="#8f5c3c" opacity="0.4"/>
    <ellipse cx="88" cy="54" rx="2" ry="3.5" fill="#8f5c3c" opacity="0.4"/><ellipse cx="64" cy="52" rx="24" ry="28" fill="#c68a5f"/><ellipse cx="55" cy="42" rx="16" ry="12" fill="url(#f7o)"/>
    <path d="M42 50 Q40 68 52 80 Q58 80 60 76 Q52 70 50 62 Q48 52 46 46Z" fill="#8f5c3c" opacity="0.3"/>
    <path d="M86 50 Q88 68 76 80 Q70 80 68 76 Q76 70 78 62 Q80 52 82 46Z" fill="#8f5c3c" opacity="0.25"/>
    <ellipse cx="64" cy="70" rx="14" ry="6" fill="#8f5c3c" opacity="0.2"/><ellipse cx="50" cy="60" rx="5" ry="2.5" fill="#a96a48" opacity="0.35"/>
    <ellipse cx="78" cy="60" rx="5" ry="2.5" fill="#a96a48" opacity="0.35"/>
        <path d="M49 50 Q54 53 59 50" stroke="#3a2418" stroke-width="2" fill="none" stroke-linecap="round"/>
        <path d="M69 50 Q74 53 79 50" stroke="#3a2418" stroke-width="2" fill="none" stroke-linecap="round"/>
    <path d="M64 50 Q62 57 60 60 Q62 62 64 62 Q66 62 68 60 Q66 57 64 50Z" fill="#8f5c3c" opacity="0.35"/>
    <ellipse cx="61" cy="60" rx="0.9" ry="0.6" fill="#724a30" opacity="0.5"/>
    <ellipse cx="67" cy="60" rx="0.9" ry="0.6" fill="#724a30" opacity="0.5"/><path d="M58 63 Q64 70 70 63 Q68 67 64 68 Q60 67 58 63Z" fill="#503322"/>
              <path d="M59 63 L69 63" stroke="#fff" stroke-width="1" opacity="0.7"/><path d="M48 43 Q54 40 60 43" stroke="#bf9e6e" stroke-width="1.8" fill="none" stroke-linecap="round"/>
    <path d="M68 43 Q74 40 80 43" stroke="#bf9e6e" stroke-width="1.8" fill="none" stroke-linecap="round"/>
        <path d="M42 50 Q42 20 64 18 Q86 20 86 50 Q84 30 74 28 Q64 26 54 28 Q44 30 42 50Z" fill="#d4b07a"/>
        <path d="M48 30 Q64 22 78 30 Q72 36 64 36 Q56 36 48 30Z" fill="#9f845c" opacity="0.5"/><circle cx="42" cy="56" r="2.8" fill="none" stroke="#c9a8e6" stroke-width="1.4"/>
              <circle cx="86" cy="56" r="2.8" fill="none" stroke="#c9a8e6" stroke-width="1.4"/><ellipse cx="64" cy="30" rx="26" ry="32" fill="none" stroke="rgba(255,230,180,0.18)" stroke-width="1.2"/><g filter="url(#p7o)" opacity="0.45">
    <rect width="128" height="128" fill="#808080"/>
  </g></g>
<circle cx="64" cy="64" r="63" fill="none" stroke="rgba(0,0,0,0.35)" stroke-width="1"/>
</svg>