<svg xmlns="http://www.w3.org/2000/svg" viewBox="0 0 128 128" role="img">
<defs><linearGradient id="b" x1="0" y1="0" x2="0" y2="1">
<stop offset="0" stop-color="#3a3a5c"/><stop offset="1" stop-color="#25253d"/>
</linearGradient></defs>
<rect width="128" height="128" rx="16" fill="url(#b)"/>
<ellipse cx="64" cy="96" rx="34" ry="28" fill="#3d5a7c"/>
<circle cx="64" cy="50" r="26" fill="#d19a6e"/>
<path d="M46 38 Q48 24 64 24 Q80 24 82 38 Q64 32 46 38 Z" fill="#d4a857"/><path d="M60 24 Q64 12 70 20 Q66 18 60 24 Z" fill="#d4a857"/>
<circle cx="54" cy="46" r="4.2" fill="#241812"/><circle cx="74" cy="46" r="4.2" fill="#241812"/><circle cx="55.4" cy="44.6" r="1.3" fill="#fff"/><circle cx="75.4" cy="44.6" r="1.3" fill="#fff"/>
<path d="M57 60 L71 60" stroke="#3d211a" stroke-width="2.4" fill="none" stroke-linecap="round"/>
<path d="M42 44 Q42 24 64 24 Q86 24 86 44" stroke="#e6c66b" stroke-width="3" fill="none"/><rect x="38" y="42" width="8" height="14" rx="4" fill="#e6c66b"/><rect x="82" y="42" width="8" height="14" rx="4" fill="#e6c66b"/>
</svg>
