<svg xmlns="http://www.w3.org/2000/svg" viewBox="0 0 128 128" role="img">
<defs><linearGradient id="b" x1="0" y1="0" x2="0" y2="1">
<stop offset="0" stop-color="#30454f"/><stop offset="1" stop-color="#1f2d34"/>
</linearGradient></defs>
<rect width="128" height="128" rx="16" fill="url(#b)"/>
<ellipse cx="64" cy="96" rx="34" ry="28" fill="#3d7c6b"/>
<circle cx="64" cy="50" r="26" fill="#5c3a22"/>
<path d="M46 38 Q48 24 64 24 Q80 24 82 38 Q64 32 46 38 Z" fill="#b5813f"/><path d="M60 24 Q64 12 70 20 Q66 18 60 24 Z" fill="#b5813f"/>
<circle cx="54" cy="46" r="4.2" fill="#241812"/><circle cx="74" cy="46" r="4.2" fill="#241812"/><circle cx="55.4" cy="44.6" r="1.3" fill="#fff"/><circle cx="75.4" cy="44.6" r="1.3" fill="#fff"/>
<path d="M56 62 Q64 56 72 62" stroke="#3d211a" stroke-width="2.2" fill="none" stroke-linecap="round"/>
<g fill="none" stroke="#e67f9a" stroke-width="2"><circle cx="54" cy="46" r="8"/><circle cx="74" cy="46" r="8"/><path d="M62 46 L66 46"/></g>
</svg>
